<svg width="30" height="30" viewBox="0 0 30 30" fill="none" xmlns="http://www.w3.org/2000/svg">
<path d="M17.4389 3.39559L17.6668 3.6081L18.5653 4.50653C18.8739 4.81368 19.2787 5.00306 19.7092 5.0456L19.8952 5.05476H21.1802C23.1849 5.05476 24.8242 6.62247 24.9388 8.59857L24.9452 8.81976V10.1035C24.9452 10.5408 25.0959 10.9611 25.3679 11.2953L25.4918 11.4331L26.3903 12.3316C27.8047 13.7396 27.8679 15.9912 26.5721 17.4751L26.4031 17.6564L25.4926 18.5669C25.1864 18.8738 24.9969 19.2789 24.9543 19.7091L24.9452 19.8948V21.181C24.9452 23.1857 23.3776 24.8239 21.4014 24.9384L21.1802 24.9448H19.8952C19.4595 24.9448 19.0386 25.0962 18.7042 25.3689L18.5664 25.4931L17.6691 26.3892C16.2626 27.8052 14.0093 27.8681 12.5249 26.5718L12.3322 26.3914L11.4359 25.495C11.1254 25.1867 10.7198 24.9967 10.2904 24.954L10.1052 24.9448H8.81891C6.815 24.9448 5.17606 23.3779 5.06155 21.4022L5.05516 21.181V19.8948C5.05516 19.4598 4.90354 19.0385 4.63094 18.7047L4.50679 18.5672L3.61038 17.6695C2.19466 16.2618 2.13186 14.0085 3.42814 12.5256L3.59725 12.3443L4.5049 11.4355C4.81358 11.1246 5.00336 10.7198 5.04599 10.2894L5.05516 10.1035V8.81976L5.06155 8.5986C5.17183 6.69589 6.69578 5.17146 8.59783 5.06115L8.81891 5.05476H10.1052C10.5408 5.05476 10.9617 4.90365 11.2955 4.63218L11.433 4.50856L12.3307 3.6096C13.7387 2.19525 15.9917 2.13298 17.4389 3.39559ZM13.8019 4.80324L13.6585 4.93346L12.757 5.83627C12.1104 6.47825 11.2553 6.8621 10.3524 6.92162L10.1052 6.92976H8.81891C7.83446 6.92976 7.02481 7.68495 6.93789 8.6478L6.93016 8.81976V10.1035C6.93016 11.015 6.5994 11.8914 6.00279 12.5765L5.83353 12.7585L4.92457 13.6687C4.2348 14.3616 4.19465 15.4562 4.80421 16.1987L4.93478 16.3423L5.83386 17.2426C6.47686 17.8872 6.86222 18.7438 6.92199 19.6473L6.93016 19.8948V21.181C6.93016 22.1661 7.68479 22.9752 8.64706 23.062L8.81891 23.0698H10.1052C11.0149 23.0698 11.8921 23.4009 12.5773 23.9976L12.7593 24.1668L13.6635 25.071C14.3612 25.7648 15.4561 25.8053 16.198 25.1957L16.3415 25.0651L17.2426 24.1653C17.8885 23.5224 18.744 23.1376 19.6476 23.0779L19.8952 23.0698H21.1802C22.166 23.0698 22.9755 22.3155 23.0624 21.3529L23.0702 21.181V19.8948C23.0702 18.9837 23.4012 18.1049 23.997 17.4229L24.166 17.2418L25.0754 16.3325C25.7651 15.6388 25.8051 14.5447 25.1964 13.8025L25.066 13.6589L24.1637 12.7566C23.5213 12.1096 23.1378 11.2553 23.0783 10.3512L23.0702 10.1035V8.81976C23.0702 7.83425 22.3151 7.02442 21.3521 6.93749L21.1802 6.92976H19.8952C18.9837 6.92976 18.1061 6.59927 17.4225 6.00306L17.241 5.83392L16.3811 4.9717L16.3313 4.92542C15.6384 4.23571 14.5436 4.19533 13.8019 4.80324ZM18.8707 17.553C18.9582 17.6405 19.0332 17.7405 19.0832 17.853C19.1207 17.9655 19.1457 18.0905 19.1457 18.2155C19.1457 18.3418 19.1207 18.453 19.0832 18.5655C19.0332 18.678 18.9582 18.7905 18.8707 18.878C18.6957 19.053 18.4582 19.153 18.2082 19.153C17.9582 19.153 17.7207 19.053 17.5457 18.878C17.4582 18.7905 17.3957 18.678 17.3457 18.5655C17.2957 18.453 17.2707 18.3418 17.2707 18.2155C17.2707 18.0905 17.2957 17.9655 17.3457 17.853C17.3957 17.7405 17.4582 17.6405 17.5457 17.553C17.8957 17.203 18.5207 17.203 18.8707 17.553ZM18.8752 11.124C19.208 11.4568 19.2383 11.9776 18.966 12.3446L18.8752 12.4498L12.4502 18.8748C12.0841 19.2409 11.4905 19.2409 11.1244 18.8748C10.7915 18.542 10.7613 18.0211 11.0336 17.6541L11.1244 17.549L17.5494 11.124C17.9155 10.7579 18.5091 10.7579 18.8752 11.124ZM12.4455 11.1285C12.6205 11.3023 12.7205 11.541 12.7205 11.791C12.7205 11.916 12.708 12.0273 12.658 12.141C12.608 12.2535 12.533 12.3535 12.4455 12.4535C12.358 12.541 12.258 12.6023 12.1455 12.6523C12.033 12.7023 11.908 12.7285 11.783 12.7285C11.658 12.7285 11.5455 12.7023 11.433 12.6523C11.3205 12.6023 11.208 12.541 11.1205 12.4535C11.033 12.3535 10.9705 12.2535 10.9205 12.141C10.8705 12.0273 10.8455 11.916 10.8455 11.791C10.8455 11.6648 10.8705 11.541 10.9205 11.4285C10.9705 11.316 11.033 11.2035 11.1205 11.1285C11.483 10.7773 12.0955 10.7773 12.4455 11.1285Z" fill="#EA7C69"/>
</svg>
